<svg xmlns="http://www.w3.org/2000/svg"  viewBox="0 0 50 50" width="50px" height="50px"><path d="M 25.507812 0 C 25.296556 0.0047080078 25.098594 0.09771875 24.910156 0.32421875 C 23.402156 0.39421875 22.358625 0.7508125 21.765625 1.3828125 L 19.669922 1.3828125 L 16.861328 3.2714844 C 16.745328 3.0014844 16.633391 2.7244531 16.525391 2.4394531 C 15.314391 2.4294531 14.255813 2.0998125 13.382812 1.3828125 C 11.962813 2.4368125 10.560406 2.9684063 9.1914062 2.4414062 C 7.3864063 3.7464063 5.453 3.3576406 5 4.5566406 L 6.0488281 4.5566406 L 10.240234 4.5566406 C 10.916234 4.7976406 11.255109 5.1522813 11.287109 5.6132812 C 11.298109 6.6152812 10.767109 7.4884688 11.287109 7.7304688 C 12.340109 8.2854687 12.557938 9.4373437 12.335938 10.902344 C 11.733937 12.613344 11.392109 14.378406 11.287109 16.191406 L 12.335938 17.25 C 13.081938 18.467 13.414766 19.885469 13.384766 21.480469 C 13.748766 22.398469 13.704766 23.507141 13.384766 24.744141 C 13.825766 26.175141 13.894766 27.562766 13.384766 28.884766 C 13.206766 29.531766 12.818937 30.250953 12.335938 31.001953 L 13.384766 32.058594 C 14.015766 33.696594 13.972766 35.091062 13.384766 36.289062 C 14.703766 37.993063 14.109469 41.489312 15.480469 43.695312 C 15.828469 44.601312 15.845469 45.651187 15.480469 46.867188 C 16.056469 46.174188 16.458344 45.472953 16.527344 44.751953 C 15.345344 41.825953 16.918469 40.441891 15.480469 39.462891 C 15.452469 38.046891 15.821344 36.637422 16.527344 35.232422 C 15.899344 34.463422 15.453469 33.734234 15.480469 33.115234 C 15.739469 30.789234 16.367172 28.641531 17.576172 26.769531 C 16.936172 25.880531 16.818172 24.917031 17.576172 23.832031 C 16.358172 23.099031 16.682172 21.854875 17.576172 20.421875 C 16.808172 19.418875 16.205094 18.380297 16.496094 17.154297 C 15.477094 16.624297 15.416469 15.394219 15.480469 14.074219 C 15.446469 13.049219 15.803344 12.351984 16.527344 11.958984 C 15.846344 11.107984 15.862047 9.7024844 15.748047 7.8964844 C 16.000047 7.1404844 16.683172 6.8029219 17.576172 6.6699219 C 17.610172 6.1809219 17.687047 5.7103281 18.623047 5.6113281 C 18.069047 5.3103281 17.644156 4.7797656 17.285156 4.1347656 C 18.373156 3.5907656 19.508703 3.3120938 20.720703 3.4960938 C 22.395703 4.0790938 22.256578 6.2771563 21.767578 8.7851562 L 22.816406 9.84375 C 23.176406 11.67675 23.229406 13.449813 22.816406 15.132812 C 22.811406 15.624812 23.034281 16.027406 23.863281 16.191406 C 23.757281 17.471406 23.501406 18.612281 22.816406 19.363281 C 23.420406 20.803281 23.887281 22.228703 23.863281 23.595703 C 23.474281 26.383703 22.919578 28.999 21.767578 31 C 22.285578 31.202 22.645406 31.546594 22.816406 32.058594 L 22.816406 34.173828 C 23.842406 37.133828 22.436281 39.159484 23.863281 40.521484 L 22.816406 42.636719 C 23.725406 43.239719 24.220281 44.179547 23.863281 45.810547 C 24.434281 46.611547 23.038281 48.511016 23.863281 50.041016 L 24.912109 47.925781 L 25.960938 41.578125 C 26.718937 39.294125 24.143937 40.104828 25.960938 34.173828 C 24.310938 24.810828 28.825641 24.743109 28.056641 22.537109 C 27.339641 20.779109 27.167641 19.358656 28.056641 18.597656 C 26.995641 17.477656 27.331641 16.311813 28.056641 15.132812 C 28.267641 13.917813 27.882812 13.242625 27.007812 13.015625 C 27.042813 12.156625 27.411641 11.461391 28.056641 10.900391 C 27.298641 9.9153906 27.034813 8.8405625 27.007812 7.7265625 C 26.950812 6.1085625 28.817688 5.2596406 28.054688 4.5566406 L 30.150391 3.4980469 C 29.115391 2.8980469 28.824562 2.1848125 29.101562 1.3828125 C 27.570812 1.6298125 26.423256 -0.020401367 25.507812 0 z M 35.390625 1.3828125 C 34.251625 1.9058125 33.591922 2.6260469 33.294922 3.4980469 C 32.362922 3.4500469 31.339391 3.7176406 30.150391 4.5566406 L 29.101562 5.6132812 C 30.261563 5.3102813 30.841266 5.833875 31.197266 6.671875 C 32.730266 5.906875 33.702797 6.026875 34.341797 6.671875 C 35.169797 7.278875 33.97375 9.4172187 34.84375 11.949219 C 34.56475 13.052219 33.854281 12.828906 33.738281 13.503906 C 33.537281 14.618906 34.876797 14.077359 34.341797 16.193359 C 34.055797 17.440359 34.555672 18.451234 35.388672 19.365234 L 34.976562 21.369141 L 35.388672 23.597656 L 35.388672 29.943359 C 35.639672 31.277359 34.359375 32.257406 35.109375 33.691406 C 35.642375 34.542406 35.047391 35.262828 34.775391 35.548828 C 34.154391 35.954828 33.885734 36.914156 35.177734 37.910156 C 35.668734 38.675156 34.422797 39.246484 34.341797 40.521484 L 35.388672 43.695312 L 35.388672 41.578125 C 35.862672 39.764125 36.554375 38.342656 37.484375 37.347656 C 37.219375 36.010656 36.529797 34.901109 37.216797 34.162109 C 37.728797 33.724109 37.790969 33.018516 37.417969 32.103516 C 37.036969 31.265516 37.057141 31.044016 37.619141 30.416016 C 38.245141 29.729016 38.267938 28.608875 37.585938 27.546875 C 36.476937 26.795875 39.492203 24.641109 38.533203 22.537109 C 38.533203 22.537109 37.035719 20.236828 37.386719 19.173828 C 37.737719 18.110828 37.486328 17.248047 37.486328 17.248047 C 36.857328 15.667047 36.866328 14.259578 37.486328 13.017578 C 37.386328 9.5855781 39.593031 8.877875 39.582031 6.671875 C 40.035031 5.185875 38.422203 4.1504531 38.533203 2.4394531 C 38.102203 1.7474531 36.961625 1.4478125 35.390625 1.3828125 z"/></svg>